<svg preserveAspectRatio="none" width="100%" height="100%" overflow="visible" style="display: block;" viewBox="0 0 40.8244 40.8225" fill="none" xmlns="http://www.w3.org/2000/svg">
<g id="icon">
<circle id="Ellipse 2443" cx="20.4132" cy="20.4112" r="20.4112" fill="var(--fill-0, #0038FF)"/>
<g id="security-validation">
<path id="Vector" d="M18.4121 20.9336C18.4121 20.9336 18.9121 20.9336 19.4121 21.9336C19.4121 21.9336 21.0003 19.4336 22.4121 18.9336" stroke="var(--stroke-0, white)" stroke-width="1.5" stroke-linecap="round" stroke-linejoin="round"/>
<path id="Vector_2" d="M25.4121 20.4336C25.4121 23.195 23.1735 25.4336 20.4121 25.4336C17.6507 25.4336 15.4121 23.195 15.4121 20.4336C15.4121 17.6722 17.6507 15.4336 20.4121 15.4336C23.1735 15.4336 25.4121 17.6722 25.4121 20.4336Z" stroke="var(--stroke-0, white)" stroke-width="1.5" stroke-linecap="round"/>
<path id="Vector_3" d="M29.4121 20.1169V17.2139C29.4121 15.5739 29.4121 14.7539 29.008 14.2189C28.6039 13.6839 27.6902 13.4242 25.8628 12.9047C24.6143 12.5498 23.5137 12.1222 22.6344 11.7319C21.4355 11.1997 20.8361 10.9336 20.4121 10.9336C19.9881 10.9336 19.3887 11.1997 18.1898 11.7319C17.3105 12.1222 16.2099 12.5498 14.9614 12.9047C13.134 13.4242 12.2203 13.6839 11.8162 14.2189C11.4121 14.7539 11.4121 15.5739 11.4121 17.2139V20.1169C11.4121 25.7421 16.4749 29.1171 19.0061 30.453C19.6132 30.7734 19.9167 30.9336 20.4121 30.9336C20.9075 30.9336 21.211 30.7734 21.8181 30.453C24.3493 29.1171 29.4121 25.7421 29.4121 20.1169Z" stroke="var(--stroke-0, white)" stroke-width="1.5" stroke-linecap="round"/>
</g>
</g>
</svg>
