<svg preserveAspectRatio="none" width="100%" height="100%" overflow="visible" style="display: block;" viewBox="0 0 40.8244 40.8225" fill="none" xmlns="http://www.w3.org/2000/svg">
<g id="icon">
<circle id="Ellipse 2443" cx="20.4132" cy="20.4112" r="20.4112" fill="var(--fill-0, #0038FF)"/>
<g id="credit-card-validation">
<path id="Vector" d="M23.4121 16.4336C23.4121 16.4336 23.9121 16.4336 24.4121 17.4336C24.4121 17.4336 26.0003 14.9336 27.4121 14.4336" stroke="var(--stroke-0, white)" stroke-width="1.5" stroke-linecap="round" stroke-linejoin="round"/>
<path id="Vector_2" d="M30.4121 15.9336C30.4121 18.695 28.1735 20.9336 25.4121 20.9336C22.6507 20.9336 20.4121 18.695 20.4121 15.9336C20.4121 13.1722 22.6507 10.9336 25.4121 10.9336C28.1735 10.9336 30.4121 13.1722 30.4121 15.9336Z" stroke="var(--stroke-0, white)" stroke-width="1.5" stroke-linecap="round"/>
<path id="Vector_3" d="M31.1621 22.1781C31.1614 21.7638 30.825 21.4286 30.4108 21.4294C29.9966 21.4301 29.6614 21.7665 29.6621 22.1807L31.1621 22.1781ZM17.4779 15.6865C17.8921 15.6842 18.226 15.3465 18.2237 14.9323C18.2213 14.5181 17.8836 14.1842 17.4694 14.1865L17.4779 15.6865ZM21.9121 30.184H18.9121V31.684H21.9121V30.184ZM18.9121 30.184C17.0152 30.184 15.6556 30.1829 14.6111 30.0649C13.5803 29.9484 12.9557 29.7267 12.4844 29.3545L11.5547 30.5317C12.3381 31.1504 13.2805 31.4241 14.4427 31.5554C15.5911 31.6851 17.0504 31.684 18.9121 31.684V30.184ZM9.66211 22.934C9.66211 24.6829 9.66068 26.0657 9.79973 27.1562C9.94143 28.2673 10.2389 29.173 10.9051 29.9202L12.0247 28.922C11.6381 28.4883 11.4092 27.9192 11.2877 26.9664C11.1635 25.9929 11.1621 24.7226 11.1621 22.934H9.66211ZM12.4844 29.3545C12.3176 29.2228 12.1638 29.078 12.0247 28.922L10.9051 29.9202C11.1028 30.142 11.3202 30.3465 11.5547 30.5317L12.4844 29.3545ZM29.6621 22.934C29.6621 24.7226 29.6607 25.9929 29.5365 26.9664C29.415 27.9192 29.1861 28.4883 28.7995 28.922L29.9191 29.9202C30.5853 29.173 30.8828 28.2673 31.0245 27.1562C31.1635 26.0657 31.1621 24.6829 31.1621 22.934H29.6621ZM21.9121 31.684C23.7738 31.684 25.2331 31.6851 26.3815 31.5554C27.5437 31.4241 28.4861 31.1504 29.2695 30.5317L28.3398 29.3545C27.8685 29.7267 27.2439 29.9484 26.2131 30.0649C25.1686 30.1829 23.809 30.184 21.9121 30.184V31.684ZM28.7995 28.922C28.6604 29.078 28.5067 29.2228 28.3398 29.3545L29.2695 30.5317C29.504 30.3465 29.7214 30.142 29.9191 29.9202L28.7995 28.922ZM11.1621 22.934C11.1621 21.1454 11.1635 19.8751 11.2877 18.9016C11.4092 17.9488 11.6381 17.3797 12.0247 16.946L10.9051 15.9478C10.2389 16.695 9.94143 17.6007 9.79973 18.7118C9.66068 19.8023 9.66211 21.1851 9.66211 22.934H11.1621ZM11.5547 15.3363C11.3202 15.5215 11.1028 15.726 10.9051 15.9478L12.0247 16.946C12.1638 16.79 12.3176 16.6452 12.4844 16.5135L11.5547 15.3363ZM31.1621 22.934C31.1621 22.6748 31.1625 22.4211 31.1621 22.1781L29.6621 22.1807C29.6625 22.4221 29.6621 22.6712 29.6621 22.934H31.1621ZM17.4694 14.1865C16.0619 14.1945 14.9162 14.2269 13.9777 14.375C13.0251 14.5254 12.2307 14.8024 11.5547 15.3363L12.4844 16.5135C12.8917 16.1918 13.4133 15.9827 14.2115 15.8567C15.0237 15.7285 16.0635 15.6945 17.4779 15.6865L17.4694 14.1865Z" fill="var(--fill-0, white)"/>
<path id="Vector_4" d="M18.4121 26.9336H19.9121" stroke="var(--stroke-0, white)" stroke-width="1.5" stroke-miterlimit="10" stroke-linecap="round" stroke-linejoin="round"/>
<path id="Vector_5" d="M22.9121 26.9336H26.4121" stroke="var(--stroke-0, white)" stroke-width="1.5" stroke-miterlimit="10" stroke-linecap="round" stroke-linejoin="round"/>
<path id="Vector_6" d="M10.9121 19.9336H18.4121" stroke="var(--stroke-0, white)" stroke-width="1.5" stroke-linecap="round" stroke-linejoin="round"/>
</g>
</g>
</svg>
