<svg preserveAspectRatio="none" width="100%" height="100%" overflow="visible" style="display: block;" viewBox="0 0 32 32.2603" fill="none" xmlns="http://www.w3.org/2000/svg">
<g id="icon">
<circle id="Ellipse 2443" cx="16" cy="16.2603" r="16" fill="var(--fill-0, #0038FF)"/>
<g id="call-02">
<path id="Vector" d="M14.3423 12.5924L14.1074 12.0639C13.9539 11.7184 13.8771 11.5456 13.7622 11.4133C13.6183 11.2476 13.4307 11.1257 13.2208 11.0615C13.0533 11.0103 12.8643 11.0103 12.4861 11.0103C11.9329 11.0103 11.6564 11.0103 11.4242 11.1166C11.1507 11.2418 10.9037 11.5138 10.8053 11.7981C10.7217 12.0394 10.7456 12.2874 10.7935 12.7834C11.3029 18.0628 14.1974 20.9573 19.4768 21.4668C19.9728 21.5146 20.2209 21.5385 20.4621 21.455C20.7464 21.3566 21.0184 21.1096 21.1437 20.8361C21.25 20.6039 21.25 20.3273 21.25 19.7741C21.25 19.396 21.25 19.2069 21.1988 19.0395C21.1345 18.8296 21.0126 18.642 20.8469 18.498C20.7147 18.3832 20.5419 18.3064 20.1964 18.1528L19.6679 17.9179C19.2937 17.7516 19.1065 17.6685 18.9164 17.6504C18.7344 17.633 18.551 17.6586 18.3806 17.7249C18.2026 17.7942 18.0454 17.9253 17.7307 18.1875C17.4176 18.4484 17.261 18.5789 17.0697 18.6488C16.9001 18.7108 16.6758 18.7337 16.4972 18.7074C16.2957 18.6777 16.1414 18.5953 15.8327 18.4303C14.8726 17.9172 14.3431 17.3877 13.8299 16.4275C13.665 16.1189 13.5825 15.9646 13.5528 15.7631C13.5265 15.5844 13.5495 15.3602 13.6114 15.1906C13.6813 14.9992 13.8118 14.8427 14.0728 14.5295C14.3349 14.2149 14.466 14.0576 14.5353 13.8796C14.6017 13.7093 14.6272 13.5258 14.6099 13.3439C14.5918 13.1537 14.5086 12.9666 14.3423 12.5924Z" stroke="var(--stroke-0, white)" stroke-width="1.06916" stroke-linecap="round"/>
</g>
</g>
</svg>
