<svg preserveAspectRatio="none" width="100%" height="100%" overflow="visible" style="display: block;" viewBox="0 0 40.824 40.8225" fill="none" xmlns="http://www.w3.org/2000/svg">
<g id="icon">
<circle id="Ellipse 2443" cx="20.4127" cy="20.4112" r="20.4112" fill="var(--fill-0, #0038FF)" fill-opacity="0.05"/>
<g id="calendar-03">
<path id="Vector" d="M24.6475 10.2896V14.2896M16.6475 10.2896V14.2896" stroke="var(--stroke-0, #0038FF)" stroke-width="1.5" stroke-linecap="round" stroke-linejoin="round"/>
<path id="Vector_2" d="M21.6475 12.2896H19.6475C15.8762 12.2896 13.9906 12.2896 12.819 13.4612C11.6475 14.6327 11.6475 16.5183 11.6475 20.2896V22.2896C11.6475 26.0608 11.6475 27.9465 12.819 29.118C13.9906 30.2896 15.8762 30.2896 19.6475 30.2896H21.6475C25.4187 30.2896 27.3044 30.2896 28.4759 29.118C29.6475 27.9465 29.6475 26.0608 29.6475 22.2896V20.2896C29.6475 16.5183 29.6475 14.6327 28.4759 13.4612C27.3044 12.2896 25.4187 12.2896 21.6475 12.2896Z" stroke="var(--stroke-0, #0038FF)" stroke-width="1.5" stroke-linecap="round" stroke-linejoin="round"/>
<path id="Vector_3" d="M11.6475 18.2896H29.6475" stroke="var(--stroke-0, #0038FF)" stroke-width="1.5" stroke-linecap="round" stroke-linejoin="round"/>
<path id="Vector_4" d="M20.643 22.2896H20.652M20.643 26.2896H20.652M24.6385 22.2896H24.6475M16.6475 22.2896H16.6564M16.6475 26.2896H16.6564" stroke="var(--stroke-0, #0038FF)" stroke-width="2" stroke-linecap="round" stroke-linejoin="round"/>
</g>
</g>
</svg>
