<svg preserveAspectRatio="none" width="100%" height="100%" overflow="visible" style="display: block;" viewBox="0 0 40.824 40.8226" fill="none" xmlns="http://www.w3.org/2000/svg">
<g id="icon">
<circle id="Ellipse 2443" cx="20.4127" cy="20.4112" r="20.4112" fill="var(--fill-0, #0038FF)" fill-opacity="0.05"/>
<g id="money-01">
<path id="Vector" d="M10.665 23.6917C12.8646 23.6917 14.6477 25.4748 14.6477 27.6744" stroke="var(--stroke-0, #0038FF)" stroke-width="1.5" stroke-linecap="round" stroke-linejoin="round"/>
<path id="Vector_2" d="M26.6475 27.6744V27.5825C26.6475 25.4337 28.3895 23.6917 30.5383 23.6917" stroke="var(--stroke-0, #0038FF)" stroke-width="1.5" stroke-linecap="round" stroke-linejoin="round"/>
<path id="Vector_3" d="M14.6477 13.7091C14.6477 15.9086 12.8646 17.6917 10.665 17.6917" stroke="var(--stroke-0, #0038FF)" stroke-width="1.5" stroke-linecap="round" stroke-linejoin="round"/>
<path id="Vector_4" d="M26.6475 13.7091C26.6475 15.8894 28.4165 17.6605 30.5898 17.6913" stroke="var(--stroke-0, #0038FF)" stroke-width="1.5" stroke-linecap="round" stroke-linejoin="round"/>
<path id="Vector_5" d="M24.6475 13.6917H16.6475C13.819 13.6917 12.4048 13.6917 11.5261 14.5704C10.6475 15.4491 10.6475 16.8633 10.6475 19.6917V21.6917C10.6475 24.5201 10.6475 25.9343 11.5261 26.813C12.4048 27.6917 13.819 27.6917 16.6475 27.6917H24.6475C27.4759 27.6917 28.8901 27.6917 29.7688 26.813C30.6475 25.9343 30.6475 24.5201 30.6475 21.6917V19.6917C30.6475 16.8633 30.6475 15.4491 29.7688 14.5704C28.8901 13.6917 27.4759 13.6917 24.6475 13.6917Z" stroke="var(--stroke-0, #0038FF)" stroke-width="1.5" stroke-linecap="round" stroke-linejoin="round"/>
<path id="Vector_6" d="M23.6475 20.6917C23.6475 22.3486 22.3044 23.6917 20.6475 23.6917C18.9906 23.6917 17.6475 22.3486 17.6475 20.6917C17.6475 19.0348 18.9906 17.6917 20.6475 17.6917C22.3044 17.6917 23.6475 19.0348 23.6475 20.6917Z" stroke="var(--stroke-0, #0038FF)" stroke-width="1.5" stroke-linecap="round" stroke-linejoin="round"/>
</g>
</g>
</svg>
