<svg preserveAspectRatio="none" width="100%" height="100%" overflow="visible" style="display: block;" viewBox="0 0 40.8239 40.8225" fill="none" xmlns="http://www.w3.org/2000/svg">
<g id="icon">
<circle id="Ellipse 2443" cx="20.4126" cy="20.4113" r="20.4112" fill="var(--fill-0, #0038FF)" fill-opacity="0.05"/>
<g id="percent-circle">
<path id="Vector" d="M16.3291 24.2305L24.3291 16.2305M18.3291 17.2305C18.3291 17.7827 17.8814 18.2305 17.3291 18.2305C16.7768 18.2305 16.3291 17.7827 16.3291 17.2305C16.3291 16.6782 16.7768 16.2305 17.3291 16.2305C17.8814 16.2305 18.3291 16.6782 18.3291 17.2305ZM24.3291 23.0589C24.3291 23.6112 23.8814 24.0589 23.3291 24.0589C22.7768 24.0589 22.3291 23.6112 22.3291 23.0589C22.3291 22.5066 22.7768 22.0589 23.3291 22.0589C23.8814 22.0589 24.3291 22.5066 24.3291 23.0589Z" stroke="var(--stroke-0, #0038FF)" stroke-width="1.5" stroke-linecap="round"/>
<path id="Vector_2" d="M20.3291 30.2305C25.8519 30.2305 30.3291 25.7533 30.3291 20.2305C30.3291 14.7076 25.8519 10.2305 20.3291 10.2305C14.8063 10.2305 10.3291 14.7076 10.3291 20.2305C10.3291 25.7533 14.8063 30.2305 20.3291 30.2305Z" stroke="var(--stroke-0, #0038FF)" stroke-width="1.5"/>
</g>
</g>
</svg>
