<svg width="69" height="69" viewBox="0 0 69 69" fill="none" xmlns="http://www.w3.org/2000/svg">
<circle cx="34.4999" cy="34.4999" r="34.4999" fill="#0038FF" fill-opacity="0.05"/>
<path fill-rule="evenodd" clip-rule="evenodd" d="M28.2247 27.4886C26.7765 25.2822 28.3338 22.3267 30.9446 22.3267H38.0554C40.6662 22.3267 42.2235 25.2822 40.7753 27.4886L39.1555 29.9565C39.4437 30.2791 39.818 30.712 40.2444 31.2379C41.2239 32.446 42.4892 34.1584 43.6182 36.1652C44.7596 38.194 45.223 39.7057 45.3835 40.7655C45.4639 41.2958 45.4679 41.7105 45.4438 42.0163C45.4318 42.169 45.4128 42.2934 45.3933 42.3904C45.3903 42.4055 45.3872 42.42 45.3842 42.4338C45.3777 42.4887 45.3677 42.552 45.3528 42.6226C45.3157 42.7985 45.2483 43.0173 45.1279 43.2618C44.8835 43.7582 44.4436 44.3154 43.6851 44.829C42.1971 45.8366 39.4899 46.675 34.4999 46.675C29.51 46.675 26.8029 45.8366 25.3148 44.829C24.5564 44.3154 24.1164 43.7581 23.8721 43.2617C23.7517 43.0173 23.6843 42.7985 23.6472 42.6226C23.6323 42.552 23.6223 42.4887 23.6158 42.4337C23.6128 42.42 23.6097 42.4055 23.6067 42.3904C23.5872 42.2934 23.5682 42.169 23.5562 42.0163C23.5321 41.7105 23.5362 41.2958 23.6165 40.7655C23.777 39.7057 24.2404 38.194 25.3818 36.1652C26.5108 34.1584 27.7761 32.446 28.7556 31.2379C29.182 30.712 29.5563 30.2791 29.8445 29.9565L28.2247 27.4886ZM31.8142 28.9671H37.1858L38.962 26.2608C39.4448 25.5253 38.9257 24.5402 38.0554 24.5402H30.9446C30.0743 24.5402 29.5552 25.5253 30.038 26.2608L31.8142 28.9671ZM31.6967 31.1806C31.6588 31.2219 31.6178 31.2669 31.5737 31.3156C31.2958 31.6227 30.9004 32.0745 30.4378 32.645C29.5105 33.7888 28.3241 35.3966 27.2739 37.2634C26.236 39.1082 25.8823 40.3633 25.7704 41.102C25.7145 41.4709 25.7185 41.7133 25.7285 41.8398C25.733 41.8968 25.7387 41.9312 25.7412 41.9442C25.7617 42.0171 25.7747 42.092 25.7802 42.1677C25.7845 42.1838 25.7957 42.2199 25.8212 42.2718C25.8833 42.398 26.0563 42.6708 26.5236 42.9872C27.4873 43.6397 29.6833 44.4615 34.4999 44.4615C39.3165 44.4615 41.5127 43.6397 42.4763 42.9872C42.9437 42.6708 43.1167 42.398 43.1788 42.2718C43.2043 42.2199 43.2155 42.1838 43.2198 42.1676C43.2253 42.092 43.2383 42.0171 43.2588 41.9442C43.2613 41.9313 43.267 41.8968 43.2715 41.8398C43.2815 41.7133 43.2855 41.4709 43.2296 41.102C43.1177 40.3633 42.764 39.1082 41.7261 37.2634C40.6759 35.3966 39.4895 33.7888 38.5622 32.645C38.0996 32.0745 37.7042 31.6227 37.4263 31.3156C37.3822 31.2669 37.3412 31.2219 37.3033 31.1806H36.4245L37.0688 32.2713C37.3784 32.7954 37.2111 33.4752 36.6951 33.7897C36.1791 34.1042 35.5098 33.9343 35.2002 33.4102L34.5 32.2249L33.7999 33.4101C33.4902 33.9343 32.8209 34.1042 32.3049 33.7897C31.7889 33.4753 31.6216 32.7954 31.9312 32.2713L32.5755 31.1806H31.6967Z" fill="#0038FF"/>
<path fill-rule="evenodd" clip-rule="evenodd" d="M32.0652 38.7862C31.851 38.572 31.5376 38.4381 31.1378 38.3582L30.7732 38.2858C30.5932 38.2499 30.4826 38.2134 30.4187 38.1729C30.3886 38.154 30.3749 38.1377 30.3682 38.1263C30.3623 38.1162 30.3578 38.103 30.3578 38.0805C30.3578 38.036 30.3746 37.995 30.4184 37.9606C30.4654 37.9236 30.6127 37.8305 30.7441 37.8305C30.8465 37.8305 30.9263 37.8474 30.9902 37.8802C31.0526 37.9122 31.1074 37.9636 31.1549 38.0442C31.2265 38.1637 31.3081 38.2573 31.4112 38.3196C31.5147 38.382 31.6294 38.4065 31.7573 38.4065C31.9052 38.4049 32.0544 38.3553 32.1639 38.2434C32.2687 38.1364 32.3248 37.9871 32.3248 37.8194C32.3248 37.7085 32.3059 37.6156 32.2701 37.5199C32.0537 36.9451 31.4102 36.7143 30.6678 36.7143C30.2153 36.7143 29.8133 36.8478 29.5216 37.0991C29.2273 37.3526 29.052 37.7207 29.052 38.1668C29.052 38.513 29.163 38.8063 29.3783 39.0303C29.5906 39.2512 29.8954 39.3957 30.271 39.4696L30.6354 39.5419C30.8398 39.5824 30.957 39.6197 31.0223 39.6606C31.0523 39.6794 31.0647 39.695 31.0704 39.7055C31.0759 39.7153 31.0809 39.7302 31.0809 39.7584C31.0809 39.8008 31.062 39.8467 31.0015 39.888C30.9383 39.9313 30.8347 39.9642 30.6904 39.9642C30.4751 39.9642 30.3108 39.8915 30.2169 39.744C30.1384 39.622 30.0551 39.5312 29.9555 39.4727C29.855 39.4137 29.7487 39.3938 29.6345 39.3938C29.4741 39.3938 29.3279 39.4534 29.2208 39.5641C29.1132 39.6754 29.052 39.8315 29.052 40.0088C29.052 40.1195 29.0732 40.2328 29.1179 40.342C29.3024 40.8053 29.8371 41.1413 30.6779 41.1413C31.1966 41.1413 31.6231 41.0051 31.9227 40.7454C32.2257 40.4829 32.3867 40.1042 32.3867 39.6526C32.3867 39.2959 32.2846 39.0056 32.0652 38.7862Z" fill="#0038FF"/>
<path fill-rule="evenodd" clip-rule="evenodd" d="M39.9481 38.2141C39.9481 38.6499 39.7959 39.0781 39.4759 39.3428L39.7951 39.9229C39.8442 40.014 39.8781 40.091 39.8988 40.1679C39.9199 40.2464 39.9255 40.318 39.9255 40.3955C39.9255 40.7941 39.64 41.0717 39.2701 41.0717C39.1223 41.0717 38.9992 41.042 38.887 40.9442C38.7831 40.8537 38.6993 40.7131 38.6051 40.5283L38.1631 39.6554H37.9368V40.3176C37.9368 40.5385 37.8826 40.7306 37.7635 40.8682C37.6435 41.007 37.4739 41.0717 37.2789 41.0717C37.0839 41.0717 36.9143 41.007 36.7943 40.8682C36.6752 40.7306 36.621 40.5385 36.621 40.3176V37.4684C36.621 37.2475 36.6752 37.0554 36.7943 36.9178C36.9143 36.779 37.0839 36.7143 37.2789 36.7143H38.3575C38.8594 36.7143 39.2594 36.8448 39.5354 37.1071C39.814 37.3721 39.9481 37.7543 39.9481 38.2141ZM37.9368 38.6036V37.8579H38.2544C38.3684 37.8579 38.4558 37.9 38.5142 37.9629C38.5725 38.0258 38.6096 38.1178 38.6096 38.2336C38.6096 38.3545 38.5737 38.4438 38.5182 38.5029C38.4624 38.5622 38.3753 38.6036 38.2519 38.6036H37.9368Z" fill="#0038FF"/>
<path fill-rule="evenodd" clip-rule="evenodd" d="M33.8601 40.8682C33.9774 40.7326 34.0318 40.544 34.0334 40.3271L34.117 39.6554L34.7775 39.6554L34.8467 40.3255C34.848 40.543 34.9024 40.7322 35.02 40.8682C35.14 41.007 35.3096 41.0717 35.5047 41.0717C35.6584 41.0717 35.7968 41.0317 35.9083 40.9452C36.0819 40.8104 36.1379 40.6084 36.1464 40.4126C36.1546 40.2236 36.1196 40.0179 36.09 39.8438L36.0887 39.8358C36.0818 39.7956 36.0752 39.7564 36.0692 39.7189L35.7252 37.4464C35.6945 37.2389 35.6414 37.0537 35.5347 36.9202C35.4222 36.7793 35.2657 36.7143 35.0689 36.7143L33.8463 36.7143C33.6473 36.7143 33.4937 36.7834 33.3835 36.9254C33.2799 37.0589 33.2267 37.2422 33.1907 37.4421L32.8111 39.7178C32.8051 39.7555 32.7983 39.7954 32.7915 39.8358L32.7901 39.8438C32.7605 40.0179 32.7256 40.2236 32.7337 40.4126C32.7422 40.6084 32.7982 40.8104 32.9718 40.9452C33.0833 41.0317 33.2217 41.0717 33.3755 41.0717C33.5705 41.0717 33.7401 41.007 33.8601 40.8682ZM34.1734 38.4442L34.2682 37.871H34.637L34.7248 38.4442H34.1734Z" fill="#0038FF"/>
</svg>
