<svg width="69" height="69" viewBox="0 0 69 69" fill="none" xmlns="http://www.w3.org/2000/svg">
<circle cx="34.4999" cy="34.4999" r="34.4999" fill="#0038FF" fill-opacity="0.05"/>
<path d="M35.9719 35.7835C37.5656 35.7835 38.9243 36.9362 39.1942 38.5089L42.2709 37.1423C44.4126 36.191 46.8213 37.7648 46.8214 40.1156C46.8213 41.3891 46.0808 42.5457 44.9264 43.0742L37.4753 46.4854C36.551 46.9086 35.4936 46.9315 34.5521 46.5484L29.2686 44.3976C28.9718 44.2768 28.6396 44.2768 28.3427 44.3976L25.5691 45.5261C23.949 46.1854 22.1788 44.9892 22.1786 43.2346V38.2895C22.1788 37.6717 22.6306 37.1603 23.2206 37.0685L26.5166 36.2154C27.6232 35.9287 28.7614 35.7835 29.9042 35.7835H35.9719ZM29.9042 38.257C28.9692 38.257 28.0379 38.3757 27.1325 38.6102L24.6433 39.2547V43.2346L27.4169 42.1051C28.3075 41.7428 29.3039 41.7427 30.1944 42.1051L35.478 44.2559C35.7918 44.3836 36.1449 44.3763 36.453 44.2352L43.9031 40.824C44.1794 40.6975 44.3567 40.4204 44.3567 40.1156C44.3566 39.553 43.7801 39.1766 43.2675 39.4043L37.5078 41.9624C37.439 41.9991 37.3694 42.0356 37.2972 42.0677L36.2317 42.5419C35.6096 42.8186 34.882 42.5366 34.6063 41.9122C34.3307 41.2879 34.6111 40.5577 35.233 40.2809L35.2979 40.2514C35.3419 40.2248 35.3876 40.2 35.4357 40.1786L36.4107 39.7447C36.6751 39.5726 36.82 39.2579 36.7689 38.9379C36.706 38.5455 36.3679 38.257 35.9719 38.257H29.9042ZM34.5 22.1771C35.1804 22.1771 35.7317 22.7286 35.7318 23.409V23.6776C36.1635 23.6987 36.5984 23.7422 36.9529 23.8301C37.6133 23.9939 38.0158 24.6623 37.8522 25.3227C37.6883 25.9831 37.0201 26.3858 36.3596 26.2219C36.0055 26.1342 35.3083 26.1196 34.5246 26.1245C34.2116 26.1361 33.8758 26.2099 33.6617 26.3203C33.6441 26.3294 33.6286 26.338 33.6155 26.3459C33.7659 26.4208 34.0635 26.4896 34.5 26.4896C35.09 26.4896 35.8732 26.5504 36.5465 26.8969C36.9042 27.081 37.2563 27.3588 37.5137 27.7677C37.773 28.1796 37.8885 28.6485 37.8886 29.1363C37.8886 30.1905 37.2042 30.8479 36.578 31.1916C36.312 31.3376 36.0232 31.449 35.7318 31.534V32.0339C35.7318 32.7143 35.1805 33.2667 34.5 33.2667C33.8196 33.2666 33.2682 32.7143 33.2682 32.0339V31.7436C32.9886 31.7283 32.6608 31.6981 32.1908 31.6393C31.5157 31.5547 31.0369 30.9389 31.1213 30.2638C31.2058 29.5887 31.8216 29.1099 32.4968 29.1943C33.3256 29.2979 33.5613 29.2969 34.1241 29.2937C34.2144 29.2932 34.3134 29.2919 34.4242 29.2917C34.8309 29.239 35.1465 29.1516 35.3442 29.0556C35.2853 29.0346 35.2023 29.0128 35.0913 28.9946C34.9245 28.9672 34.7256 28.9542 34.5 28.9542C33.8739 28.9542 33.0978 28.8661 32.4338 28.5095C31.6841 28.1068 31.1096 27.3644 31.1114 26.3046C31.1134 25.1609 31.8705 24.4712 32.5312 24.1302C32.7688 24.0075 33.0193 23.9142 33.2682 23.8439V23.409C33.2683 22.7287 33.8197 22.1772 34.5 22.1771Z" fill="#0038FF"/>
</svg>
