<svg width="69" height="69" viewBox="0 0 69 69" fill="none" xmlns="http://www.w3.org/2000/svg">
<circle cx="34.4999" cy="34.4999" r="34.4999" fill="#0038FF" fill-opacity="0.05"/>
<path d="M32.97 22.3267C33.9901 22.3267 34.9683 22.732 35.6895 23.4533L45.5472 33.311C47.0493 34.813 47.0493 37.2489 45.5472 38.7509L38.7505 45.5477C37.2484 47.0498 34.8125 47.0498 33.3105 45.5477L23.4528 35.69C22.7315 34.9688 22.3262 33.9906 22.3262 32.9705V26.1728C22.3263 24.0487 24.0482 22.3268 26.1723 22.3267H32.97ZM26.1723 24.7618C25.3929 24.7619 24.7614 25.3934 24.7613 26.1728V32.9705C24.7614 33.3448 24.9099 33.7035 25.1746 33.9682L35.0323 43.8259C35.5835 44.3771 36.4774 44.3771 37.0286 43.8259L43.8254 37.0291C44.3766 36.4779 44.3766 35.584 43.8254 35.0328L33.9677 25.1751C33.7031 24.9104 33.3443 24.7619 32.97 24.7618H26.1723ZM29.4585 26.2692C31.2197 26.2692 32.6473 27.6977 32.6473 29.459C32.6471 31.2201 31.2196 32.6478 29.4585 32.6478C27.6975 32.6477 26.2699 31.22 26.2697 29.459C26.2697 27.6978 27.6974 26.2693 29.4585 26.2692ZM29.4585 28.7043C29.0421 28.7045 28.7048 29.0425 28.7048 29.459C28.705 29.8753 29.0422 30.2125 29.4585 30.2127C29.8749 30.2127 30.2129 29.8753 30.2131 29.459C30.2131 29.0425 29.875 28.7043 29.4585 28.7043Z" fill="#0038FF"/>
</svg>
